<mxfile host="www.draw.io" modified="2020-05-03T14:46:31.960Z" agent="5.0 (Macintosh; Intel Mac OS X 10_14_6) AppleWebKit/537.36 (KHTML, like Gecko) Chrome/81.0.4044.129 Safari/537.36" etag="6KSOTEqtDlcPBynvDZaM" version="13.0.5" type="github">
  <diagram id="LbiZ8pvWBlCiQUzygJiZ" name="Page-1">
    <mxGraphModel dx="827" dy="843" grid="1" gridSize="10" guides="1" tooltips="1" connect="1" arrows="1" fold="1" page="1" pageScale="1" pageWidth="1600" pageHeight="900" math="0" shadow="0">
      <root>
        <mxCell id="0" />
        <mxCell id="1" parent="0" />
        <mxCell id="0HF_tEZIsqgijd7mcVRd-1" value="Bandwidth Platform" style="rounded=1;whiteSpace=wrap;html=1;fillColor=#66FFFF;strokeColor=#6c8ebf;gradientColor=#ffffff;gradientDirection=east;dashed=1;" vertex="1" parent="1">
          <mxGeometry x="40" y="80" width="410" height="30" as="geometry" />
        </mxCell>
        <mxCell id="0HF_tEZIsqgijd7mcVRd-2" value="Bandwidth Storage" style="rounded=1;whiteSpace=wrap;html=1;fillColor=#66FFFF;strokeColor=#6c8ebf;gradientColor=#ffffff;gradientDirection=east;dashed=1;" vertex="1" parent="1">
          <mxGeometry x="40" y="330" width="410" height="20" as="geometry" />
        </mxCell>
        <mxCell id="0HF_tEZIsqgijd7mcVRd-3" value="Bandwidth Network" style="rounded=1;whiteSpace=wrap;html=1;fillColor=#66FFFF;strokeColor=#6c8ebf;gradientColor=#ffffff;gradientDirection=east;dashed=1;" vertex="1" parent="1">
          <mxGeometry x="40" y="370" width="410" height="20" as="geometry" />
        </mxCell>
        <mxCell id="0HF_tEZIsqgijd7mcVRd-6" value="Data Centers" style="rounded=1;whiteSpace=wrap;html=1;dashed=1;fillColor=none;gradientColor=#ffffff;labelPosition=center;verticalLabelPosition=top;align=left;verticalAlign=bottom;" vertex="1" parent="1">
          <mxGeometry x="40" y="140" width="270" height="170" as="geometry" />
        </mxCell>
        <mxCell id="0HF_tEZIsqgijd7mcVRd-7" value="AWS" style="rounded=1;whiteSpace=wrap;html=1;dashed=1;fillColor=none;gradientColor=#ffffff;labelPosition=center;verticalLabelPosition=top;align=left;verticalAlign=bottom;" vertex="1" parent="1">
          <mxGeometry x="330" y="140" width="120" height="170" as="geometry" />
        </mxCell>
        <mxCell id="0HF_tEZIsqgijd7mcVRd-8" value="RHV" style="rounded=1;whiteSpace=wrap;html=1;fillColor=#d5e8d4;align=center;strokeColor=#82b366;" vertex="1" parent="1">
          <mxGeometry x="50" y="160" width="110" height="20" as="geometry" />
        </mxCell>
        <mxCell id="0HF_tEZIsqgijd7mcVRd-9" value="Storage" style="rounded=1;whiteSpace=wrap;html=1;fillColor=#fff2cc;align=center;strokeColor=#d6b656;" vertex="1" parent="1">
          <mxGeometry x="50" y="230" width="240" height="30" as="geometry" />
        </mxCell>
        <mxCell id="0HF_tEZIsqgijd7mcVRd-10" value="Network" style="rounded=1;whiteSpace=wrap;html=1;fillColor=#f8cecc;align=center;strokeColor=#b85450;arcSize=0;" vertex="1" parent="1">
          <mxGeometry x="50" y="260" width="240" height="30" as="geometry" />
        </mxCell>
        <mxCell id="0HF_tEZIsqgijd7mcVRd-16" value="EC2" style="rounded=1;whiteSpace=wrap;html=1;fillColor=#d5e8d4;align=center;strokeColor=#82b366;" vertex="1" parent="1">
          <mxGeometry x="330" y="160" width="120" height="40" as="geometry" />
        </mxCell>
        <mxCell id="0HF_tEZIsqgijd7mcVRd-17" value="EBS" style="rounded=1;whiteSpace=wrap;html=1;fillColor=#fff2cc;align=center;strokeColor=#d6b656;" vertex="1" parent="1">
          <mxGeometry x="330" y="200" width="120" height="40" as="geometry" />
        </mxCell>
        <mxCell id="0HF_tEZIsqgijd7mcVRd-18" value="VPC" style="rounded=1;whiteSpace=wrap;html=1;fillColor=#f8cecc;align=center;strokeColor=#b85450;" vertex="1" parent="1">
          <mxGeometry x="330" y="240" width="120" height="40" as="geometry" />
        </mxCell>
        <mxCell id="0HF_tEZIsqgijd7mcVRd-19" value="Bare Metal" style="rounded=1;whiteSpace=wrap;html=1;fillColor=#d5e8d4;align=center;strokeColor=#82b366;" vertex="1" parent="1">
          <mxGeometry x="180" y="160" width="110" height="20" as="geometry" />
        </mxCell>
      </root>
    </mxGraphModel>
  </diagram>
</mxfile>
